<svg width="352" height="352" viewBox="0 0 352 352" fill="none" xmlns="http://www.w3.org/2000/svg">
<circle cx="176" cy="176" r="176" fill="#E0FF22"/>
<path d="M282.501 143.185C281.816 141.536 280.505 140.225 278.856 139.54C278.045 139.194 277.173 139.011 276.291 139H242.541C240.751 139 239.034 139.711 237.768 140.977C236.502 142.243 235.791 143.96 235.791 145.75C235.791 147.54 236.502 149.257 237.768 150.523C239.034 151.789 240.751 152.5 242.541 152.5H260.024L222.291 190.233L200.084 167.957C199.456 167.325 198.71 166.823 197.887 166.48C197.064 166.137 196.182 165.961 195.291 165.961C194.4 165.961 193.518 166.137 192.695 166.48C191.873 166.823 191.126 167.325 190.499 167.957L149.999 208.458C149.366 209.085 148.864 209.832 148.521 210.654C148.178 211.477 148.002 212.359 148.002 213.25C148.002 214.141 148.178 215.023 148.521 215.846C148.864 216.668 149.366 217.415 149.999 218.042C150.626 218.675 151.373 219.177 152.195 219.52C153.018 219.863 153.9 220.039 154.791 220.039C155.682 220.039 156.564 219.863 157.387 219.52C158.21 219.177 158.956 218.675 159.584 218.042L195.291 182.267L217.499 204.543C218.126 205.175 218.873 205.677 219.695 206.02C220.518 206.363 221.4 206.539 222.291 206.539C223.182 206.539 224.064 206.363 224.887 206.02C225.71 205.677 226.456 205.175 227.084 204.543L269.541 162.017V179.5C269.541 181.29 270.252 183.007 271.518 184.273C272.784 185.539 274.501 186.25 276.291 186.25C278.081 186.25 279.798 185.539 281.064 184.273C282.33 183.007 283.041 181.29 283.041 179.5V145.75C283.03 144.868 282.847 143.996 282.501 143.185V143.185Z" fill="#3461FF"/>
<path d="M119.711 133.404C120.289 133.74 120.737 134.261 120.98 134.884C121.224 135.506 121.249 136.193 121.052 136.832L110.41 171.411H130.046C130.623 171.411 131.187 171.58 131.669 171.896C132.152 172.213 132.53 172.665 132.759 173.194C132.988 173.724 133.057 174.309 132.957 174.878C132.857 175.446 132.592 175.972 132.196 176.392L84.9245 226.619C84.4671 227.105 83.8585 227.422 83.1978 227.518C82.5371 227.615 81.8633 227.484 81.2862 227.148C80.7091 226.812 80.2628 226.291 80.02 225.669C79.7772 225.047 79.7522 224.361 79.9492 223.723L90.5913 189.138H70.9557C70.3786 189.138 69.8142 188.969 69.3319 188.653C68.8497 188.336 68.4708 187.884 68.2421 187.355C68.0133 186.825 67.9447 186.24 68.0447 185.671C68.1447 185.103 68.4089 184.577 68.8048 184.157L116.077 133.93C116.534 133.445 117.141 133.128 117.801 133.031C118.461 132.935 119.134 133.064 119.711 133.399V133.404Z" fill="#3461FF"/>
</svg>
