<svg width="1200" height="455" viewBox="0 0 1200 455" fill="none" xmlns="http://www.w3.org/2000/svg">
<rect width="1200" height="455" rx="56" fill="#232038"/>
<mask id="mask0_29_283" style="mask-type:alpha" maskUnits="userSpaceOnUse" x="0" y="0" width="1200" height="455">
<rect width="1200" height="455" rx="56" fill="#232038"/>
</mask>
<g mask="url(#mask0_29_283)">
<g opacity="0.1">
<rect x="-8.45553" y="-32.4555" width="172.578" height="172.578" stroke="#D9D9D9" stroke-width="1.31111"/>
<rect x="-8.45553" y="141.433" width="172.578" height="172.578" stroke="#D9D9D9" stroke-width="1.31111"/>
<rect x="-8.45553" y="315.322" width="172.578" height="172.578" stroke="#D9D9D9" stroke-width="1.31111"/>
<rect x="165.433" y="-32.4555" width="172.578" height="172.578" stroke="#D9D9D9" stroke-width="1.31111"/>
<rect x="165.433" y="141.433" width="172.578" height="172.578" stroke="#D9D9D9" stroke-width="1.31111"/>
<rect x="165.433" y="315.322" width="172.578" height="172.578" stroke="#D9D9D9" stroke-width="1.31111"/>
<rect x="339.322" y="-32.4555" width="172.578" height="172.578" stroke="#D9D9D9" stroke-width="1.31111"/>
<rect x="339.322" y="141.433" width="172.578" height="172.578" stroke="#D9D9D9" stroke-width="1.31111"/>
<rect x="339.322" y="315.322" width="172.578" height="172.578" stroke="#D9D9D9" stroke-width="1.31111"/>
<rect x="513.211" y="-32.4555" width="172.578" height="172.578" stroke="#D9D9D9" stroke-width="1.31111"/>
<rect x="513.211" y="141.433" width="172.578" height="172.578" stroke="#D9D9D9" stroke-width="1.31111"/>
<rect x="513.211" y="315.322" width="172.578" height="172.578" stroke="#D9D9D9" stroke-width="1.31111"/>
<rect x="687.1" y="-32.4555" width="172.578" height="172.578" stroke="#D9D9D9" stroke-width="1.31111"/>
<rect x="687.1" y="141.433" width="172.578" height="172.578" stroke="#D9D9D9" stroke-width="1.31111"/>
<rect x="687.1" y="315.322" width="172.578" height="172.578" stroke="#D9D9D9" stroke-width="1.31111"/>
<rect x="860.989" y="-32.4555" width="172.578" height="172.578" stroke="#D9D9D9" stroke-width="1.31111"/>
<rect x="860.989" y="141.433" width="172.578" height="172.578" stroke="#D9D9D9" stroke-width="1.31111"/>
<rect x="860.989" y="315.322" width="172.578" height="172.578" stroke="#D9D9D9" stroke-width="1.31111"/>
<rect x="1034.88" y="-32.4555" width="172.578" height="172.578" stroke="#D9D9D9" stroke-width="1.31111"/>
<rect x="1034.88" y="141.433" width="172.578" height="172.578" stroke="#D9D9D9" stroke-width="1.31111"/>
<rect x="1034.88" y="315.322" width="172.578" height="172.578" stroke="#D9D9D9" stroke-width="1.31111"/>
</g>
</g>
</svg>
